<svg xmlns="http://www.w3.org/2000/svg" viewBox="0 0 256 256" role="img" aria-label="Team Task Manager logo">
  <defs>
    <linearGradient id="paper" x1="42" y1="10" x2="221" y2="239" gradientUnits="userSpaceOnUse">
      <stop stop-color="#063f43"/>
      <stop offset="0.52" stop-color="#006f72"/>
      <stop offset="1" stop-color="#00a39a"/>
    </linearGradient>
    <linearGradient id="waveA" x1="3" y1="27" x2="249" y2="236" gradientUnits="userSpaceOnUse">
      <stop stop-color="#94e4dc"/>
      <stop offset="1" stop-color="#79d4cb"/>
    </linearGradient>
    <linearGradient id="waveB" x1="41" y1="127" x2="213" y2="232" gradientUnits="userSpaceOnUse">
      <stop stop-color="#009b9c"/>
      <stop offset="1" stop-color="#00646b"/>
    </linearGradient>
    <filter id="softShadow" x="-20%" y="-20%" width="140%" height="140%" color-interpolation-filters="sRGB">
      <feDropShadow dx="0" dy="9" stdDeviation="11" flood-color="#052f34" flood-opacity="0.18"/>
    </filter>
  </defs>

  <path
    fill="url(#paper)"
    filter="url(#softShadow)"
    d="M42 5h139l54 54v155c0 20.4-16.6 37-37 37H42c-20.4 0-37-16.6-37-37V42C5 21.6 21.6 5 42 5Z"
  />
  <path fill="#fff" d="M181 5v44c0 18.8 15.2 34 34 34h20L181 5Z" opacity="0.98"/>
  <path fill="url(#waveA)" d="M5 72c42-52 101-9 128 51 28 62 71 83 122 64v64H42c-20.4 0-37-16.6-37-37V72Z" opacity="0.92"/>
  <path fill="url(#waveB)" d="M5 217c7-51 35-90 76-98 45-9 72 14 96 55 20 34 41 57 78 63v14H42c-20.4 0-37-16.6-37-37v3Z"/>
  <path
    fill="none"
    stroke="#f8ffff"
    stroke-linecap="round"
    stroke-linejoin="round"
    stroke-width="24"
    d="m78 151 38 43 72-96"
  />
</svg>
